<mxfile host="app.diagrams.net" modified="2024-04-02T22:22:02.859Z" agent="Mozilla/5.0 (Windows NT 10.0; Win64; x64) AppleWebKit/537.36 (KHTML, like Gecko) Chrome/123.0.0.0 Safari/537.36" version="24.2.0" etag="pMvJUUAAozi_8sH3rG5C" type="github">
  <diagram name="PÃ¡gina-1" id="iCU33OXc3J_5LSNypjHl">
    <mxGraphModel>
      <root>
        <mxCell id="0" />
        <mxCell id="1" parent="0" />
      </root>
    </mxGraphModel>
  </diagram>
</mxfile>
